<?xml version="1.0" standalone="no"?>
<!DOCTYPE svg PUBLIC "-//W3C//DTD SVG 20010904//EN"
 "http://www.w3.org/TR/2001/REC-SVG-20010904/DTD/svg10.dtd">
<svg version="1.0" xmlns="http://www.w3.org/2000/svg"
 width="1404.000000pt" height="710.000000pt" viewBox="0 0 1404.000000 710.000000"
 preserveAspectRatio="xMidYMid meet">

<g transform="translate(0.000000,710.000000) scale(0.100000,-0.100000)"
fill="#000000" stroke="none">
<path d="M6580 7033 c-869 -32 -1629 -124 -2370 -288 -1338 -294 -2455 -794
-3209 -1433 -550 -467 -879 -1006 -947 -1551 -45 -366 16 -708 191 -1066 121
-248 278 -466 499 -694 534 -547 1280 -986 2281 -1339 1259 -445 2750 -659
4330 -622 1804 43 3489 437 4735 1108 475 255 854 533 1165 853 401 413 629
844 690 1307 149 1118 -787 2210 -2511 2927 -301 125 -779 290 -1061 366 -40
10 -108 28 -150 40 -958 258 -2158 404 -3263 397 -168 -1 -339 -3 -380 -5z
m1110 -193 c1089 -52 2196 -248 3085 -545 623 -208 1131 -441 1585 -725 335
-210 673 -493 890 -745 364 -423 543 -879 527 -1340 -21 -618 -370 -1196
-1040 -1718 -659 -514 -1590 -928 -2707 -1202 -222 -55 -479 -111 -645 -140
-885 -160 -1810 -229 -2728 -205 -1097 30 -1989 155 -2982 420 -483 128 -1082
353 -1500 562 -1113 558 -1770 1249 -1927 2028 -30 149 -33 454 -5 590 93 460
307 826 707 1214 341 330 728 590 1281 860 639 313 1381 553 2225 722 697 138
1417 215 2229 238 183 5 775 -4 1005 -14z"/>
<path d="M5015 6049 c-635 -105 -1487 -427 -2268 -858 -159 -87 -339 -199
-557 -344 -261 -175 -395 -283 -609 -492 -278 -271 -360 -374 -464 -577 -94
-188 -105 -325 -19 -261 19 14 37 47 58 107 39 108 67 150 168 255 188 193
566 473 946 698 163 97 200 116 200 105 0 -5 -20 -65 -45 -133 -24 -68 -61
-175 -82 -238 l-38 -115 -123 -82 c-226 -151 -322 -245 -322 -313 0 -36 34
-87 72 -111 54 -33 103 -26 186 25 40 25 74 45 76 45 2 0 -5 -37 -15 -82 -49
-216 -71 -377 -84 -618 -19 -353 4 -597 71 -766 32 -78 101 -158 151 -175 79
-26 218 14 258 74 12 19 12 33 0 102 -17 97 -20 588 -4 770 21 252 83 580 166
880 61 225 60 221 106 248 23 13 117 69 210 125 199 121 396 221 492 251 39
12 107 25 152 28 96 7 123 24 123 77 0 73 -82 141 -169 139 -25 -1 -90 -15
-144 -33 -103 -33 -374 -143 -466 -189 -82 -42 -101 -46 -101 -25 0 25 159
425 178 446 8 10 24 20 36 24 11 4 116 47 231 96 643 273 1266 476 1646 534
77 12 140 15 242 10 142 -6 168 -1 194 33 31 41 -5 154 -73 230 -64 72 -152
113 -247 117 -40 1 -99 -2 -132 -7z"/>
<path d="M6393 5680 c-42 -25 -58 -58 -109 -225 -41 -136 -179 -523 -190 -534
-12 -12 -677 -12 -924 -1 -239 11 -255 11 -267 -6 -18 -25 -17 -32 11 -57 41
-38 237 -150 325 -185 151 -61 243 -74 508 -70 153 2 233 0 233 -7 0 -6 -27
-91 -60 -190 -151 -447 -231 -745 -272 -1004 -29 -185 -31 -477 -4 -601 22
-102 66 -225 100 -278 60 -95 162 -151 248 -137 49 9 55 31 34 134 -35 178
-41 294 -22 487 27 271 58 428 142 719 39 134 291 894 302 911 7 11 89 25 387
64 729 97 1080 164 1106 213 8 14 8 22 -1 31 -16 16 -604 15 -1038 -2 -189 -8
-345 -12 -347 -10 -2 1 19 71 46 153 96 291 114 389 85 459 -19 46 -82 114
-127 137 -50 25 -124 25 -166 -1z"/>
<path d="M11776 4758 c-18 -28 -50 -125 -155 -463 -155 -505 -220 -799 -242
-1100 -7 -101 -17 -163 -28 -190 -10 -22 -60 -105 -110 -185 -183 -286 -249
-357 -267 -283 -16 64 6 330 50 591 51 305 50 316 -17 377 -56 52 -137 78
-237 78 -118 1 -166 -36 -190 -146 -36 -171 -281 -637 -397 -759 -77 -80 -132
-7 -118 157 34 393 261 873 506 1071 124 100 271 147 338 108 50 -30 65 -85
66 -244 l0 -135 44 1 c33 1 49 7 62 23 23 28 33 112 27 215 -12 191 -116 280
-385 331 -268 52 -436 1 -628 -190 -351 -347 -536 -967 -381 -1273 67 -132
244 -218 393 -191 116 22 214 112 363 334 58 87 68 86 69 -4 1 -72 31 -252 53
-316 44 -131 107 -222 175 -251 48 -21 111 -17 170 10 83 39 256 227 369 403
29 44 57 84 62 87 5 3 12 -17 16 -45 16 -119 94 -286 171 -364 60 -62 177
-123 253 -132 51 -6 52 -5 52 21 0 14 -16 67 -35 116 -58 148 -53 169 125 530
224 452 398 690 506 690 24 0 39 -15 47 -48 8 -35 -10 -317 -27 -417 -60 -339
-177 -671 -281 -793 -59 -69 -97 -86 -200 -92 -82 -5 -90 -7 -93 -26 -7 -46
133 -122 254 -139 65 -8 186 8 246 35 193 85 357 321 428 616 47 195 62 427
36 584 -26 161 -69 270 -133 341 -90 100 -313 156 -412 104 -46 -24 -105 -96
-181 -220 -82 -134 -268 -523 -345 -722 -16 -40 -33 -69 -38 -66 -13 8 -2 228
18 361 17 117 76 370 140 607 40 147 95 316 205 627 37 107 40 121 30 158 -14
53 -53 96 -145 159 -123 85 -199 105 -229 59z"/>
<path d="M7185 4426 c-126 -31 -250 -110 -369 -237 -196 -208 -371 -560 -436
-880 -29 -140 -25 -324 10 -414 31 -81 105 -154 185 -184 82 -31 207 -27 280
8 76 37 175 145 283 309 l97 147 13 -120 c27 -250 92 -422 178 -476 51 -32
141 -31 203 1 88 44 209 185 362 418 l74 113 17 -90 c43 -217 129 -328 269
-347 24 -3 56 -1 71 5 53 20 127 151 513 896 147 285 265 498 265 480 0 -15
-25 -91 -59 -180 -40 -103 -152 -496 -185 -645 -63 -290 -36 -444 104 -581 91
-89 214 -134 265 -96 19 14 20 28 21 194 2 309 35 440 278 1077 120 314 131
354 116 400 -22 66 -151 149 -261 166 -100 15 -149 -3 -244 -92 -176 -165
-404 -518 -686 -1067 -73 -142 -74 -143 -77 -103 -3 45 24 211 65 392 14 63
32 142 39 175 31 139 13 189 -84 232 -62 27 -196 47 -256 38 -117 -19 -131
-30 -105 -89 9 -19 7 -51 -10 -148 -12 -68 -28 -183 -36 -257 l-16 -135 -86
-150 c-157 -273 -246 -406 -273 -406 -12 0 -21 14 -30 47 -12 40 -11 73 8 237
11 105 37 291 57 414 l37 223 -26 39 c-44 66 -92 85 -221 85 -99 0 -114 -2
-154 -25 -54 -31 -69 -59 -122 -228 -73 -235 -312 -687 -402 -761 -10 -7 -27
-11 -41 -7 -65 16 -67 176 -5 429 41 168 82 284 149 422 185 380 405 608 602
623 51 4 59 2 81 -22 32 -34 38 -69 36 -210 0 -63 2 -119 6 -125 7 -12 54 -15
80 -5 33 13 48 65 53 181 4 109 4 114 -26 175 -17 35 -37 70 -44 79 -21 26
-88 55 -165 73 -86 19 -322 21 -398 2z"/>
<path d="M5131 4398 c-157 -16 -188 -32 -322 -168 -179 -180 -339 -437 -400
-639 -26 -89 -29 -206 -6 -267 l15 -42 -41 -63 c-104 -163 -130 -199 -187
-262 -63 -69 -194 -162 -265 -190 -138 -53 -224 -18 -293 119 -36 70 -52 155
-52 270 0 60 3 125 6 145 l6 37 107 0 c119 -1 178 10 260 50 64 30 173 133
219 206 105 165 159 482 103 599 -46 94 -111 123 -256 114 -110 -8 -186 -27
-290 -76 -64 -30 -92 -51 -143 -106 -199 -218 -420 -663 -468 -945 -32 -186
-2 -366 80 -477 159 -216 423 -263 701 -124 85 42 114 64 195 144 121 120 208
229 292 369 37 61 69 116 71 121 1 5 30 -5 63 -22 84 -42 212 -59 333 -43 102
14 151 15 151 5 0 -35 -193 -258 -337 -390 -161 -147 -279 -232 -352 -255 -33
-10 -41 -18 -41 -36 0 -37 17 -59 66 -88 39 -23 57 -27 127 -27 72 0 89 3 142
30 163 84 487 364 611 529 121 161 168 277 145 354 -18 59 -64 106 -127 130
-74 27 -225 42 -351 34 l-102 -7 -7 27 c-12 49 5 116 55 220 66 136 114 207
198 293 72 73 134 113 176 113 l25 0 -13 -57 c-7 -32 -36 -125 -64 -207 -28
-82 -51 -157 -51 -167 0 -54 58 -23 176 97 199 200 302 365 312 495 l5 70 -41
38 c-25 24 -57 42 -85 50 -53 13 -210 12 -346 -1z m-1061 -440 c34 -154 -101
-423 -259 -516 -38 -22 -58 -27 -113 -27 -36 0 -70 3 -74 7 -19 19 98 293 180
422 39 60 138 153 170 159 12 2 35 5 53 6 30 1 32 -1 43 -51z"/>
</g>
</svg>
